<svg aria-hidden="true" style="position: absolute; width: 44px; height: 44px; overflow: hidden;"
  version="1.1" xmlns="http://www.w3.org/2000/svg" xmlns:xlink="http://www.w3.org/1999/xlink">
  <defs>
    <symbol id="icon-phone" viewBox="0 0 44 44">
      <rect x="0.5" y="0.5" width="43" height="43" rx="9.5"
        fill="white" fill-opacity="0.08"
        stroke="url(#paint0_linear_11_226)" />


      <path
        d="M18.1668 14.3797C17.4951 14.2352 16.9637 14.5471 16.4932 14.8194C16.0114 15.1001 15.0951 15.8434 14.57 15.6531C11.8811 14.546 9.35213 12.1925 8.25739 9.49286C8.06444 8.95647 8.80424 8.0344 9.08283 7.54686C9.35316 7.07492 9.65858 6.53852 9.51928 5.86178C9.3934 5.25366 7.76522 3.18188 7.18947 2.61533C6.80977 2.2411 6.42078 2.03527 6.02147 2.00201C4.5202 1.93756 2.84352 3.94073 2.54945 4.41996C1.81274 5.44181 1.81687 6.80152 2.56183 8.45021C4.35717 12.8786 11.1475 19.5618 15.5925 21.4246C16.4128 21.8082 17.1629 22.0005 17.8366 22.0005C18.496 22.0005 19.0831 21.8165 19.5876 21.4516C19.9684 21.2323 22.0536 19.4724 21.9989 17.9307C21.9659 17.5378 21.7606 17.1448 21.3912 16.7644C20.8289 16.1833 18.7704 14.5065 18.1668 14.3797Z"
        fill="white" transform="translate(10, 10)" />
        <defs>
        <linearGradient id="paint0_linear_11_226" x1="22" y1="0" x2="22" y2="44"
          gradientUnits="userSpaceOnUse">
          <stop stop-color="white" />
          <stop offset="1" stop-color="white" stop-opacity="0" />
        </linearGradient>
      </defs>
    </symbol>

<symbol id="icon-menu" viewBox="0 0 44 44">
  <rect x="0.5" y="0.5" width="43" height="43" rx="9.5"
        fill="white" fill-opacity="0.08"
        stroke="url(#paint0_linear_11_226)" />

  <line x1="10" y1="16" x2="34" y2="16" stroke="white" stroke-width="2" stroke-linecap="round" />
  <line x1="10" y1="22" x2="34" y2="22" stroke="white" stroke-width="2" stroke-linecap="round" />
  <line x1="10" y1="28" x2="34" y2="28" stroke="white" stroke-width="2" stroke-linecap="round" />

  <defs>
    <linearGradient id="paint0_linear_11_226" x1="22" y1="0" x2="22" y2="44"
      gradientUnits="userSpaceOnUse">
      <stop stop-color="white" />
      <stop offset="1" stop-color="white" stop-opacity="0" />
    </linearGradient>
  </defs>
</symbol>






<symbol id="icon-close" viewBox="0 0 44 44">
  <rect x="0.5" y="0.5" width="43" height="43" rx="9.5"
        fill="white" fill-opacity="0.08"
        stroke="url(#paint0_linear_11_226)" />

  <line x1="14" y1="14" x2="30" y2="30"
        stroke="white" stroke-width="2" stroke-linecap="round" />
  <line x1="30" y1="14" x2="14" y2="30"
        stroke="white" stroke-width="2" stroke-linecap="round" />

  <defs>
    <linearGradient id="paint0_linear_11_226" x1="22" y1="0" x2="22" y2="44"
      gradientUnits="userSpaceOnUse">
      <stop stop-color="white" />
      <stop offset="1" stop-color="white" stop-opacity="0" />
    </linearGradient>
  </defs>
</symbol>





    <symbol id="arrow-left" viewBox="0 0 40 40">
      <path fill-rule="evenodd" clip-rule="evenodd"
        d="M33.6668 17C33.6668 26.2 26.1835 33.6666 17.0002 33.6666L16.5339 33.6602C7.5492 33.413 0.333496 26.044 0.333496 17C0.333496 7.81665 7.80016 0.333313 17.0002 0.333313C26.1835 0.333313 33.6668 7.81665 33.6668 17ZM13.7002 10.3333C13.2168 10.8333 13.2168 11.6166 13.7168 12.1L18.6335 17L13.7168 21.9C13.2168 22.3833 13.2168 23.1833 13.7002 23.6666C14.2002 24.1666 14.9835 24.1666 15.4668 23.6666L21.2835 17.8833C21.5168 17.65 21.6502 17.3333 21.6502 17C21.6502 16.6666 21.5168 16.35 21.2835 16.1166L15.4668 10.3333C15.2335 10.0833 14.9168 9.96665 14.6002 9.96665C14.2668 9.96665 13.9502 10.0833 13.7002 10.3333Z"
        fill="#141024" />
    </symbol>
    <symbol id="arrow-right" viewBox="0 0 40 40">
      <path fill-rule="evenodd" clip-rule="evenodd"
        d="M0.333172 17C0.333172 26.2 7.8165 33.6666 16.9998 33.6666L17.4661 33.6602C26.4508 33.413 33.6665 26.044 33.6665 17C33.6665 7.81665 26.1998 0.333313 16.9998 0.333313C7.8165 0.333313 0.333172 7.81665 0.333172 17ZM20.2998 10.3333C20.7832 10.8333 20.7832 11.6166 20.2832 12.1L15.3665 17L20.2832 21.9C20.7832 22.3833 20.7832 23.1833 20.2998 23.6666C19.7998 24.1666 19.0165 24.1666 18.5332 23.6666L12.7165 17.8833C12.4832 17.65 12.3498 17.3333 12.3498 17C12.3498 16.6666 12.4832 16.35 12.7165 16.1166L18.5332 10.3333C18.7665 10.0833 19.0832 9.96665 19.3998 9.96665C19.7332 9.96665 20.0498 10.0833 20.2998 10.3333Z"
        fill="#141024" />
    </symbol>

    <symbol id="facebook" viewBox="0 0 32 32">
<path d="M19 6h5v-6h-5c-3.86 0-7 3.14-7 7v3h-4v6h4v16h6v-16h5l1-6h-6v-3c0-0.542 0.458-1 1-1z"></path>
</symbol>
<symbol id="instagram" viewBox="0 0 32 32">
<path d="M16 2.881c4.275 0 4.781 0.019 6.462 0.094 1.563 0.069 2.406 0.331 2.969 0.55 0.744 0.288 1.281 0.638 1.837 1.194 0.563 0.563 0.906 1.094 1.2 1.838 0.219 0.563 0.481 1.412 0.55 2.969 0.075 1.688 0.094 2.194 0.094 6.463s-0.019 4.781-0.094 6.463c-0.069 1.563-0.331 2.406-0.55 2.969-0.288 0.744-0.637 1.281-1.194 1.837-0.563 0.563-1.094 0.906-1.837 1.2-0.563 0.219-1.413 0.481-2.969 0.55-1.688 0.075-2.194 0.094-6.463 0.094s-4.781-0.019-6.463-0.094c-1.563-0.069-2.406-0.331-2.969-0.55-0.744-0.288-1.281-0.637-1.838-1.194-0.563-0.563-0.906-1.094-1.2-1.837-0.219-0.563-0.481-1.413-0.55-2.969-0.075-1.688-0.094-2.194-0.094-6.463s0.019-4.781 0.094-6.463c0.069-1.563 0.331-2.406 0.55-2.969 0.288-0.744 0.638-1.281 1.194-1.838 0.563-0.563 1.094-0.906 1.838-1.2 0.563-0.219 1.412-0.481 2.969-0.55 1.681-0.075 2.188-0.094 6.463-0.094zM16 0c-4.344 0-4.887 0.019-6.594 0.094-1.7 0.075-2.869 0.35-3.881 0.744-1.056 0.412-1.95 0.956-2.837 1.85-0.894 0.888-1.438 1.781-1.85 2.831-0.394 1.019-0.669 2.181-0.744 3.881-0.075 1.713-0.094 2.256-0.094 6.6s0.019 4.887 0.094 6.594c0.075 1.7 0.35 2.869 0.744 3.881 0.413 1.056 0.956 1.95 1.85 2.837 0.887 0.887 1.781 1.438 2.831 1.844 1.019 0.394 2.181 0.669 3.881 0.744 1.706 0.075 2.25 0.094 6.594 0.094s4.888-0.019 6.594-0.094c1.7-0.075 2.869-0.35 3.881-0.744 1.050-0.406 1.944-0.956 2.831-1.844s1.438-1.781 1.844-2.831c0.394-1.019 0.669-2.181 0.744-3.881 0.075-1.706 0.094-2.25 0.094-6.594s-0.019-4.887-0.094-6.594c-0.075-1.7-0.35-2.869-0.744-3.881-0.394-1.063-0.938-1.956-1.831-2.844-0.887-0.887-1.781-1.438-2.831-1.844-1.019-0.394-2.181-0.669-3.881-0.744-1.712-0.081-2.256-0.1-6.6-0.1v0z"></path>
<path d="M16 7.781c-4.537 0-8.219 3.681-8.219 8.219s3.681 8.219 8.219 8.219 8.219-3.681 8.219-8.219c0-4.537-3.681-8.219-8.219-8.219zM16 21.331c-2.944 0-5.331-2.387-5.331-5.331s2.387-5.331 5.331-5.331c2.944 0 5.331 2.387 5.331 5.331s-2.387 5.331-5.331 5.331z"></path>
<path d="M26.462 7.456c0 1.060-0.859 1.919-1.919 1.919s-1.919-0.859-1.919-1.919c0-1.060 0.859-1.919 1.919-1.919s1.919 0.859 1.919 1.919z"></path>
</symbol>
  </defs>
</svg>